<svg xmlns="http://www.w3.org/2000/svg" viewBox="0 0 33.866678 33.866663" width="128" height="128">
  <defs>
    <linearGradient id="linearGradient3236-3">
      <stop offset="0" stop-color="#7b7b7b" stop-opacity="1"/>
      <stop offset="1" stop-color="#313131" stop-opacity="1"/>
    </linearGradient>
    <linearGradient id="linearGradient3238" href="#linearGradient3236-3" x1="27.164375" y1="6.02949" x2="6.905004" y2="19.858719" gradientUnits="userSpaceOnUse" gradientTransform="translate(-0.09776838)"/>
  </defs>
  
  <!-- Base Background -->
  <g id="layer5">
    <rect style="fill:#000000;stroke:#d5d5d5;stroke-width:0.529141;stroke-miterlimit:4;" width="33.337524" height="33.337524" x="0.26458332" y="0.26458332"/>
  </g>
  
  <!-- Divider Lines -->
  <g id="layer7">
    <rect style="fill:#d5d5d5;fill-opacity:1;" width="33.866665" height="0.52916533" x="0" y="25.929169"/>
    <rect style="fill:#d5d5d5;fill-opacity:1;" width="0.52916664" height="7.4083338" x="16.668751" y="26.458334"/>
  </g>
  
  <!-- Main Display Surface -->
  <g id="layer8">
    <rect style="fill:url(#linearGradient3238);fill-opacity:1;" width="27.78125" height="20.637499" x="2.9449401" y="2.9104164"/>
  </g>
  
  <!-- Display UI Bars -->
  <g id="layer13">
    <rect style="fill:#ffffff;fill-opacity:0.2;" width="5.7932129" height="18.550905" x="3.8301141" y="4.0042596"/>
    <rect style="fill:#ffffff;fill-opacity:0.2;" width="5.7932129" height="18.550905" x="10.702881" y="4.0042596"/>
    <rect style="fill:#ffffff;fill-opacity:0.2;" width="5.7932129" height="14.881947" x="17.575645" y="7.6732183"/>
    <rect style="fill:#ffffff;fill-opacity:0.2;" width="5.7932129" height="5.6989689" x="24.448414" y="16.856195"/>
    <rect style="fill:#ffffff;fill-opacity:1;" width="5.7932138" height="0.52916664" x="24.448414" y="16.327028"/>
    <rect style="fill:#ffffff;fill-opacity:1;" width="5.7932138" height="0.52916664" x="17.575645" y="7.1440516"/>
  </g>
  
  <!-- Center/Bottom Icons -->
  <g id="layer9" transform="translate(-23.806324,-37.15598)">
    <g id="g5919" style="fill:#e64a19;" transform="matrix(0.03965498,0,0,0.03965498,26.441604,41.923381)">
      <path style="fill:#ffffff;" d="m 101.98447,125.1679 h -2.245638 v -2.73834 c -14.16038,-2.44361 -17.3872,-14.81829 -17.3872,-14.81829 V 91.007272 h 0.36152 l 20.404928,7e-6 20.40493,7e-6 h 0.36152 v 16.604004 c 0,0 -3.22682,12.37467 -17.3872,14.81828 v 2.73834 h -2.51917" id="path11871"/>
      <path style="fill:#ffc101;" d="m 105.09218,202.90132 v 0 h 2.7026 v 2.48107 c 0,0 37.39333,-3.92227 36.86167,44.65741 v 0.52945 h 2.7912 c 0,0 2.96843,0.31427 2.96843,3.28271 v 23.64396 l 0.11576,4.88839 H 103.17596 55.820082 v -4.88839 -23.64396 c 0,-2.96844 2.96843,-3.28271 2.96843,-3.28271 h 2.79119 v -0.52946 c -0.53165,-48.57968 36.86168,-44.65741 36.86168,-44.65741 v -2.48107 h 2.702598 v 0" id="path10161"/>
      <path style="fill:#ffffff;" d="m 101.14398,202.90132 h 3.9482 v -77.73341 h -3.9482 z" id="path12007"/>
    </g>
  </g>
  
  <g id="layer3" transform="translate(-23.806324,-37.15598)">
    <g id="g91894" transform="matrix(0.06977641,0,0,0.06977641,35.538172,48.387134)">
      <g id="layer1-1" transform="translate(-30.269979,-9.7200098)" style="fill:#ffc101;">
        <path style="fill:#ffc101;" d="m 55.789326,41.355207 -7.50621,-0.0036 c -8.143469,-0.0039 -15.508914,-0.135689 -16.902471,-0.302478 -0.482408,-0.05774 -0.940146,-0.168019 -1.017198,-0.245069 -0.115522,-0.115523 -0.121188,-0.512246 -0.03231,-2.261925 0.23677,-4.661121 1.011239,-7.815267 2.954845,-12.034057 2.163281,-4.695621 5.19604,-8.340625 9.101253,-10.938592 2.710535,-1.8032 6.982591,-3.536303 9.582241,-3.887359 0.270422,-0.03652 0.543941,-0.129371 0.60782,-0.20634 0.06388,-0.07697 0.286764,-0.168201 0.495299,-0.202735 0.208537,-0.03453 0.449284,-0.09017 0.534995,-0.123628 0.168484,-0.06577 0.381034,-0.08553 1.215776,-0.112981 l 0.540477,-0.01778 0.03093,-0.649326 0.03093,-0.6493272 h 1.610329 1.610329 l 0.03093,0.6493272 0.03093,0.649326 0.540477,0.01778 c 0.834742,0.02745 1.047292,0.04721 1.215776,0.112981 0.08571,0.03346 0.326458,0.08909 0.534995,0.123628 0.208535,0.03453 0.43142,0.125765 0.495299,0.202735 0.06388,0.07697 0.337398,0.169823 0.60782,0.20634 1.199505,0.161981 3.423686,0.820696 4.997483,1.480058 3.507719,1.469604 6.221358,3.303143 8.667596,5.856479 2.140092,2.233788 3.602852,4.416791 5.018415,7.489412 1.943606,4.21879 2.718075,7.372936 2.954845,12.034057 0.08888,1.749679 0.08321,2.146402 -0.03231,2.261925 -0.07705,0.07705 -0.53479,0.187332 -1.017198,0.245069 -1.393557,0.166789 -8.759002,0.298597 -16.902471,0.302478 l -7.50621,0.0036 z" id="path1465"/>
      </g>
      <g id="g2878" transform="translate(-30.269979,-9.7200098)">
        <path style="fill:#ffffff;" d="m 54.334834,101.13608 c -3.956539,-0.21732 -5.98252,-0.58093 -6.463066,-1.159955 -0.09761,-0.11762 -0.123549,-0.57148 -0.09916,-1.73541 0.02799,-1.33577 0.008,-1.59689 -0.130816,-1.71212 -0.09011,-0.0748 -0.16384,-0.29294 -0.16384,-0.48477 0,-0.30436 0.05486,-0.37678 0.430667,-0.5685 0.694102,-0.3541 2.301256,-0.71174 4.060659,-0.9036 l 1.638312,-0.17866 V 70.783119 c 0,-15.670705 -0.03494,-23.609951 -0.103892,-23.609951 -0.05714,0 -0.103892,-0.0935 -0.103892,-0.207784 0,-0.194592 0.06926,-0.207784 1.090868,-0.207784 0.900399,0 1.090868,-0.02721 1.090868,-0.155839 0,-0.08571 0.04675,-0.155838 0.103892,-0.155838 0.06644,0 0.103892,-3.463072 0.103892,-5.090716 l 2.493412,-2e-6 c 0,1.627644 0.03746,5.090716 0.103892,5.090716 0.05714,0 0.103892,0.07013 0.103892,0.155838 0,0.128629 0.190469,0.155839 1.090868,0.155839 1.021606,0 1.090868,0.01319 1.090868,0.207784 0,0.114281 -0.04675,0.207784 -0.103892,0.207784 -0.06896,0 -0.103892,7.939246 -0.103892,23.609951 v 23.609948 l 1.638312,0.17866 c 1.759403,0.19186 3.366557,0.54949 4.060659,0.9036 0.375812,0.19172 0.430667,0.26413 0.430667,0.5685 0,0.19183 -0.07373,0.40998 -0.16384,0.48476 -0.138668,0.11509 -0.158971,0.37643 -0.132144,1.70097 0.01743,0.86075 -0.0055,1.62411 -0.05099,1.69635 -0.27864,0.442605 -1.632284,0.804945 -3.803075,1.017985 -1.460176,0.14331 -6.726732,0.26812 -8.109225,0.19219 z" id="path2876"/>
      </g>
      <g id="layer3-5">
        <circle style="fill:#ffffff;" id="path1510" cx="34.837666" cy="55.072739" r="1.2872558"/>
      </g>
      <g id="layer2-9">
        <rect style="fill:#ffffff;" id="rect1508" width="1.3904994" height="22.681686" x="34.147842" y="31.601988"/>
      </g>
    </g>
    
    <g id="g3200" transform="translate(-0.12607031,-0.38086418)">
      <path style="fill:#ffffff;" d="M 44.402059,52.095745" id="path2901"/>
      <path style="fill:#ffffff;" d="m 44.402059,52.095745 c -0.0044,8.13e-4 -0.0088,0.002 -0.0128,0.0032 -0.04762,0.01081 -0.08124,0.05363 -0.08004,0.102447 v 0.614685 c -3.87e-4,0.03682 0.01881,0.07123 0.05082,0.09004 0.03201,0.01841 0.07123,0.01841 0.103248,0 0.03201,-0.01881 0.05122,-0.05322 0.05082,-0.09004 v -0.614685 c 0.0012,-0.02961 -0.01081,-0.05803 -0.03201,-0.07804 -0.02161,-0.02041 -0.05082,-0.03041 -0.08004,-0.02761 z" id="path2899"/>
      <path style="fill:#ffffff;" d="m 45.404122,51.676351 c -0.03842,0.0068 -0.06923,0.03482 -0.08004,0.07203 -0.01081,0.03762 3.87e-4,0.07764 0.02881,0.104048 l 0.435401,0.435401 c 0.02481,0.03041 0.06443,0.04442 0.102848,0.03561 0.03802,-0.0088 0.06803,-0.03882 0.07683,-0.07684 0.0088,-0.03842 -0.0052,-0.07804 -0.03561,-0.102848 l -0.435413,-0.4354 c -0.01921,-0.02041 -0.04562,-0.03161 -0.07363,-0.03201 -0.0032,0 -0.0064,0 -0.0096,0 -0.0032,0 -0.0064,0 -0.0096,0 z" id="path2897"/>
      <path style="fill:#ffffff;" d="m 43.387189,51.676351 c -0.02321,0.0032 -0.04482,0.01481 -0.06083,0.03201 l -0.435402,0.435402 c -0.03041,0.02481 -0.04442,0.06443 -0.03561,0.102847 0.0088,0.03802 0.03882,0.06803 0.07684,0.07684 0.03842,0.0088 0.07804,-0.0052 0.102848,-0.03561 l 0.435401,-0.435402 c 0.03042,-0.02921 0.03962,-0.07443 0.02321,-0.113252 -0.01601,-0.03882 -0.05483,-0.06363 -0.09684,-0.06283 -0.0032,0 -0.0064,0 -0.0096,0 z" id="path2895"/>
      <path style="fill:#ffffff;" d="m 45.817113,50.664684 c -0.05643,0.008 -0.09604,0.06043 -0.08804,0.116853 0.008,0.05643 0.06043,0.09605 0.116854,0.08804 h 0.614685 c 0.03682,3.88e-4 0.07123,-0.01881 0.09004,-0.05082 0.01841,-0.03201 0.01841,-0.07123 0,-0.103248 -0.01881,-0.03201 -0.05322,-0.05122 -0.09004,-0.05082 h -0.614685 c -0.0032,0 -0.0064,0 -0.0096,0 -0.0032,0 -0.0064,0 -0.0096,0 -0.0032,0 -0.0064,0 -0.0096,0 z" id="path2893"/>
      <path style="fill:#ffffff;" d="m 42.333902,50.664684 c -0.05643,0.008 -0.09604,0.06043 -0.08804,0.116853 0.008,0.05643 0.06043,0.09605 0.116854,0.08804 h 0.614685 c 0.03682,3.88e-4 0.07123,-0.01881 0.09004,-0.05082 0.01841,-0.03201 0.01841,-0.07123 0,-0.103248 -0.01881,-0.03201 -0.05322,-0.05122 -0.09004,-0.05082 h -0.614685 c -0.0032,0 -0.0064,0 -0.0096,0 -0.0032,0 -0.0064,0 -0.0096,0 -0.0032,0 -0.0064,0 -0.0096,0 z" id="path2891"/>
      <path style="fill:#ffffff;" d="m 44.40526,49.947552 c 0.002,0 0.0044,0 0.0064,0 0.0032,0 0.0064,0 0.0096,0 0.448207,0.0052 0.809974,0.370171 0.809974,0.819579 0,0.45301 -0.366569,0.819579 -0.819579,0.819579 -0.452609,0 -0.819579,-0.366569 -0.819579,-0.819579 0,-0.450609 0.363369,-0.815978 0.813177,-0.819579 z" id="path2889"/>
      <path style="fill:#ffffff;" d="m 44.40206,49.742657 c -0.0032,8.13e-4 -0.0064,0.002 -0.0096,0.0032 -0.0064,3.87e-4 -0.01281,0.0016 -0.01921,0.0032 -0.0012,0.0012 -0.002,0.002 -0.0032,0.0032 -0.543452,0.02321 -0.982855,0.465816 -0.982855,1.01487 0,0.56386 0.460614,1.024474 1.024474,1.024474 0.563861,0 1.024474,-0.460614 1.024474,-1.024474 0,-0.547053 -0.435801,-0.988057 -0.976451,-1.01487 -0.0036,0 -0.006,-0.0032 -0.0096,-0.0032 -0.0104,-0.004 -0.02121,-0.006 -0.03201,-0.0064 -0.002,0 -0.0044,0 -0.0064,0 -0.0032,0 -0.0064,0 -0.0096,0 z" id="path2887"/>
      <path style="fill:#ffffff;" d="m 45.849129,49.214413 c -0.02321,0.0032 -0.04482,0.01481 -0.06083,0.03201 l -0.435401,0.435401 c -0.03041,0.02481 -0.04442,0.06443 -0.03561,0.102848 0.0088,0.03802 0.03882,0.06803 0.07684,0.07683 0.03842,0.0088 0.07804,-0.0052 0.102848,-0.03561 l 0.435401,-0.435401 c 0.03201,-0.03041 0.04122,-0.07804 0.02241,-0.118055 -0.01921,-0.04042 -0.06163,-0.06363 -0.105649,-0.05803 z" id="path2885"/>
      <path style="fill:#ffffff;" d="m 42.942185,49.214413 c -0.03842,0.0068 -0.06923,0.03482 -0.08004,0.07203 -0.01081,0.03762 3.87e-4,0.07764 0.02881,0.104048 l 0.435402,0.435402 c 0.02481,0.03041 0.06443,0.04442 0.102847,0.03561 0.03802,-0.0088 0.06803,-0.03882 0.07684,-0.07684 0.0088,-0.03842 -0.0052,-0.07804 -0.03561,-0.102847 l -0.435401,-0.435402 c -0.02121,-0.02281 -0.05202,-0.03441 -0.08324,-0.03201 -0.0032,0 -0.0064,0 -0.0096,0 z" id="path2883"/>
      <path style="fill:#ffffff;" d="m 44.40206,48.612534 c -0.0044,8.13e-4 -0.0088,0.002 -0.01281,0.0032 -0.04762,0.01081 -0.08124,0.05362 -0.08004,0.102448 v 0.614684 c -3.87e-4,0.03681 0.01881,0.07123 0.05082,0.09004 0.03201,0.01841 0.07123,0.01841 0.103247,0 0.03201,-0.01881 0.05122,-0.05322 0.05082,-0.09004 v -0.614684 c 0.0012,-0.02961 -0.01081,-0.05803 -0.03201,-0.07804 -0.02161,-0.02041 -0.05082,-0.03041 -0.08004,-0.02761 z" id="path2623"/>
    </g>
  </g>
</svg>
